<!-- Generated by IcoMoon.io -->
<svg version="1.1" xmlns="http://www.w3.org/2000/svg" width="59" height="32" viewBox="0 0 59 32">
<title>Logo6</title>
<path fill="#8e8f99" d="M30.588 15.682c-0.254-0.338-0.375-0.737-0.346-1.138v-1.65c0-0.506 0.115-0.89 0.344-1.153s0.624-0.394 1.183-0.393c0.525 0 0.898 0.112 1.119 0.336 0.24 0.286 0.358 0.635 0.331 0.987v0.388h-0.94v-0.393c0.003-0.129-0.006-0.257-0.027-0.384-0.014-0.087-0.061-0.168-0.134-0.228-0.096-0.066-0.218-0.097-0.34-0.089-0.129-0.008-0.256 0.025-0.358 0.094-0.082 0.067-0.136 0.156-0.156 0.252-0.027 0.135-0.039 0.271-0.037 0.408v2.003c-0.015 0.193 0.027 0.387 0.121 0.562 0.047 0.060 0.112 0.107 0.188 0.136s0.16 0.041 0.242 0.032c0.12 0.009 0.24-0.024 0.333-0.091 0.077-0.066 0.126-0.151 0.14-0.243 0.022-0.133 0.032-0.267 0.029-0.401v-0.406h0.94v0.371c0.026 0.367-0.088 0.732-0.325 1.038-0.216 0.245-0.584 0.368-1.125 0.368s-0.949-0.131-1.181-0.403z"></path>
<path fill="#8e8f99" d="M34.501 15.699c-0.237-0.257-0.356-0.631-0.356-1.127v-1.736c0-0.49 0.119-0.861 0.356-1.113s0.634-0.377 1.191-0.376c0.553 0 0.947 0.125 1.185 0.376 0.237 0.252 0.358 0.623 0.358 1.113v1.736c0 0.49-0.121 0.866-0.362 1.125s-0.634 0.388-1.181 0.388-0.951-0.131-1.191-0.386zM36.129 15.282c0.085-0.161 0.124-0.337 0.113-0.514v-2.125c0.011-0.173-0.027-0.346-0.111-0.504-0.048-0.061-0.114-0.109-0.192-0.138s-0.164-0.040-0.248-0.030c-0.084-0.010-0.17 0-0.248 0.030s-0.145 0.077-0.193 0.138c-0.086 0.157-0.124 0.33-0.113 0.504v2.136c-0.012 0.177 0.027 0.353 0.113 0.514 0.055 0.054 0.122 0.098 0.198 0.127s0.158 0.045 0.242 0.045 0.166-0.015 0.242-0.045c0.076-0.030 0.143-0.073 0.198-0.127v-0.010z"></path>
<path fill="#8e8f99" d="M38.364 11.398h1.012l0.761 3.203 0.778-3.203h0.984l0.099 4.623h-0.728l-0.078-3.213-0.751 3.213h-0.584l-0.778-3.225-0.072 3.225h-0.735l0.091-4.623z"></path>
<path fill="#8e8f99" d="M43.133 11.398h1.576c0.908 0 1.362 0.438 1.362 1.313 0 0.838-0.478 1.257-1.434 1.256h-0.537v2.055h-0.973l0.006-4.623zM44.479 13.374c0.096 0.011 0.194 0.003 0.286-0.022s0.177-0.067 0.249-0.124c0.112-0.156 0.161-0.339 0.14-0.522 0.005-0.141-0.011-0.282-0.047-0.42-0.014-0.046-0.038-0.089-0.072-0.127s-0.075-0.069-0.123-0.093c-0.135-0.056-0.284-0.081-0.434-0.074h-0.377v1.382h0.377z"></path>
<path fill="#8e8f99" d="M47.474 11.398h1.045l1.072 4.623h-0.907l-0.212-1.066h-0.932l-0.218 1.066h-0.92l1.072-4.623zM48.367 14.419l-0.364-1.941-0.364 1.941h0.728z"></path>
<path fill="#8e8f99" d="M50.456 11.398h0.681l1.304 2.637v-2.637h0.807v4.623h-0.648l-1.311-2.753v2.753h-0.835l0.002-4.623z"></path>
<path fill="#8e8f99" d="M55.139 14.258l-1.084-2.854h0.912l0.661 1.833 0.621-1.833h0.893l-1.070 2.854v1.763h-0.934v-1.763z"></path>
<path fill="#8e8f99" d="M32.090 18.042v0.242h-0.794v1.879h-0.333v-1.879h-0.798v-0.242h1.924z"></path>
<path fill="#8e8f99" d="M34.578 20.163h-0.257c-0.026 0.001-0.052-0.006-0.072-0.020-0.019-0.012-0.034-0.029-0.043-0.049l-0.23-0.504h-1.101l-0.23 0.504c-0.007 0.021-0.019 0.041-0.035 0.057-0.020 0.014-0.046 0.021-0.072 0.020h-0.257l0.973-2.12h0.339l0.984 2.112zM32.968 19.375h0.918l-0.389-0.863c-0.029-0.065-0.053-0.132-0.072-0.2-0.014 0.040-0.025 0.079-0.037 0.113l-0.035 0.089-0.385 0.861z"></path>
<path fill="#8e8f99" d="M36.256 19.954c0.061 0.003 0.122 0.003 0.183 0 0.053-0.005 0.105-0.013 0.156-0.025 0.048-0.010 0.094-0.023 0.14-0.039 0.043-0.015 0.086-0.034 0.13-0.052v-0.477h-0.389c-0.010 0-0.019-0.001-0.028-0.004s-0.017-0.007-0.024-0.013c-0.006-0.005-0.011-0.011-0.015-0.017s-0.005-0.014-0.005-0.021v-0.163h0.755v0.813c-0.062 0.038-0.127 0.072-0.195 0.101-0.069 0.030-0.142 0.054-0.216 0.072-0.080 0.020-0.161 0.035-0.243 0.044-0.094 0.009-0.189 0.014-0.284 0.013-0.168 0.001-0.334-0.026-0.49-0.079-0.146-0.050-0.278-0.126-0.389-0.222-0.108-0.097-0.194-0.211-0.251-0.336-0.061-0.141-0.092-0.29-0.090-0.44-0.002-0.151 0.028-0.301 0.088-0.443 0.056-0.126 0.141-0.24 0.251-0.336 0.111-0.095 0.243-0.17 0.389-0.22 0.167-0.054 0.343-0.081 0.521-0.079 0.091-0 0.181 0.006 0.27 0.018 0.079 0.011 0.157 0.029 0.231 0.054 0.068 0.022 0.133 0.050 0.195 0.084 0.060 0.033 0.116 0.070 0.169 0.111l-0.093 0.131c-0.007 0.012-0.018 0.022-0.032 0.029s-0.029 0.011-0.044 0.011c-0.022-0.001-0.042-0.006-0.060-0.017-0.029-0.013-0.060-0.030-0.095-0.050-0.041-0.022-0.085-0.041-0.13-0.057-0.058-0.020-0.118-0.036-0.179-0.047-0.081-0.013-0.164-0.019-0.247-0.018-0.128-0.001-0.256 0.019-0.376 0.059-0.108 0.038-0.206 0.095-0.286 0.168-0.081 0.076-0.142 0.166-0.181 0.264-0.087 0.23-0.087 0.477 0 0.707 0.043 0.1 0.109 0.191 0.195 0.267 0.080 0.073 0.177 0.13 0.284 0.168 0.124 0.037 0.255 0.051 0.385 0.042z"></path>
<path fill="#8e8f99" d="M39.357 19.921h1.062v0.242h-1.387v-2.12h0.333l-0.008 1.879z"></path>
<path fill="#8e8f99" d="M41.524 20.162h-0.333v-2.12h0.333v2.12z"></path>
<path fill="#8e8f99" d="M42.761 18.052c0.020 0.010 0.037 0.023 0.051 0.039l1.422 1.598c-0.002-0.025-0.002-0.050 0-0.076 0-0.023 0-0.047 0-0.069v-1.511h0.29v2.129h-0.167c-0.025 0.002-0.050-0.002-0.072-0.012-0.020-0.011-0.038-0.024-0.053-0.040l-1.42-1.597c0 0.025 0 0.049 0 0.072s0 0.045 0 0.066v1.511h-0.278v-2.12h0.173c0.019 0 0.037 0.003 0.054 0.010z"></path>
<path fill="#8e8f99" d="M46.974 18.042v0.233h-1.179v0.7h0.955v0.225h-0.955v0.724h1.179v0.233h-1.521v-2.115h1.521z"></path>
<path fill="#8e8f99" d="M12.112 4.948l14.772 3.619v12.683l-14.772-3.618v-12.685zM11.164 3.867v14.382l16.666 4.084v-14.38l-16.666-4.086z"></path>
<path fill="#8e8f99" d="M20.096 29.010l-16.667-4.088v-14.381l16.667 4.086v14.382z"></path>
<path fill="#8e8f99" d="M11.44 4.785l14.58 3.574-6.2 5.352-14.582-3.576 6.202-5.35zM11.164 3.867l-7.735 6.675 16.667 4.086 7.733-6.675-16.666-4.086z"></path>
<path fill="#8e8f99" d="M21.034 28.201l6.796-5.866-6.796-1.667v7.532z"></path>
</svg>
