<!-- Generated by IcoMoon.io -->
<svg version="1.1" xmlns="http://www.w3.org/2000/svg" width="59" height="32" viewBox="0 0 59 32">
<title>Logo4</title>
<path fill="#8e8f99" d="M13.759 12.296h-0.002c-1.363 0-2.468 0.996-2.468 2.225v0.002c0 1.229 1.105 2.225 2.468 2.225h0.002c1.363 0 2.468-0.996 2.468-2.225v-0.002c0-1.229-1.105-2.225-2.468-2.225z"></path>
<path fill="#8e8f99" d="M31.978 11.585c-0.004-1.707-0.758-3.343-2.096-4.551s-3.153-1.887-5.047-1.891v0c-1.894 0.003-3.709 0.683-5.049 1.89s-2.094 2.844-2.098 4.552v9.414c0 0 14.288-1.435 14.289-9.412v-0.001z"></path>
<path fill="#8e8f99" d="M6.286 24.088c0.003 1.188 0.528 2.326 1.46 3.166s2.194 1.314 3.511 1.317c1.317-0.003 2.579-0.477 3.511-1.317s1.456-1.978 1.46-3.165v-6.55c0 0-9.942 0.999-9.942 6.549zM11.257 25.262c-0.258 0-0.509-0.069-0.723-0.198s-0.381-0.312-0.479-0.527-0.124-0.45-0.074-0.678c0.050-0.228 0.174-0.437 0.356-0.601s0.414-0.276 0.666-0.321c0.252-0.045 0.514-0.022 0.752 0.067s0.441 0.239 0.584 0.432c0.143 0.193 0.219 0.42 0.219 0.652 0.001 0.154-0.033 0.308-0.098 0.451s-0.161 0.273-0.282 0.382c-0.121 0.109-0.265 0.196-0.423 0.256s-0.328 0.090-0.499 0.090v-0.004z"></path>
<path fill="#8e8f99" d="M20.348 23.151v2.438h-0.502v-2.438h0.502zM21.319 24.193v0.392h-1.108v-0.392h1.108zM21.436 23.151v0.393h-1.225v-0.393h1.225zM23.73 24.313v0.116c0 0.185-0.025 0.352-0.075 0.499s-0.121 0.273-0.213 0.377c-0.091 0.103-0.201 0.181-0.328 0.236-0.126 0.055-0.266 0.082-0.42 0.082-0.153 0-0.293-0.027-0.42-0.082-0.126-0.055-0.235-0.133-0.328-0.236-0.093-0.104-0.165-0.229-0.216-0.377-0.050-0.147-0.075-0.314-0.075-0.499v-0.116c0-0.186 0.025-0.353 0.075-0.499 0.050-0.147 0.121-0.273 0.213-0.377 0.093-0.104 0.202-0.183 0.328-0.238 0.127-0.055 0.267-0.082 0.42-0.082 0.154 0 0.294 0.027 0.42 0.082 0.127 0.055 0.237 0.134 0.328 0.238 0.093 0.104 0.164 0.229 0.214 0.377 0.051 0.146 0.077 0.312 0.077 0.499zM23.222 24.429v-0.119c0-0.13-0.012-0.243-0.035-0.342s-0.058-0.181-0.104-0.248-0.102-0.117-0.167-0.151c-0.066-0.035-0.141-0.052-0.226-0.052s-0.16 0.017-0.226 0.052c-0.065 0.034-0.12 0.084-0.166 0.151-0.045 0.067-0.079 0.15-0.102 0.248s-0.035 0.212-0.035 0.342v0.119c0 0.128 0.012 0.242 0.035 0.341 0.023 0.098 0.058 0.181 0.104 0.249 0.046 0.067 0.102 0.118 0.167 0.152s0.141 0.052 0.226 0.052c0.085 0 0.16-0.017 0.226-0.052s0.121-0.085 0.166-0.152c0.045-0.068 0.079-0.151 0.102-0.249 0.023-0.099 0.035-0.213 0.035-0.341zM25.36 24.951c0-0.044-0.007-0.083-0.020-0.117-0.012-0.036-0.036-0.068-0.070-0.097-0.035-0.030-0.083-0.060-0.146-0.089s-0.143-0.059-0.243-0.090c-0.11-0.036-0.215-0.076-0.315-0.121-0.098-0.045-0.185-0.096-0.261-0.156-0.075-0.060-0.134-0.13-0.177-0.209-0.042-0.079-0.064-0.171-0.064-0.276 0-0.102 0.022-0.194 0.067-0.276 0.045-0.084 0.107-0.155 0.188-0.214 0.080-0.060 0.175-0.107 0.285-0.139 0.11-0.032 0.232-0.049 0.363-0.049 0.18 0 0.337 0.032 0.47 0.097s0.238 0.154 0.311 0.266c0.075 0.113 0.112 0.242 0.112 0.387h-0.499c0-0.071-0.015-0.134-0.045-0.188-0.029-0.055-0.074-0.098-0.134-0.129-0.059-0.031-0.134-0.047-0.224-0.047-0.087 0-0.16 0.013-0.218 0.040-0.058 0.026-0.102 0.061-0.131 0.105-0.029 0.044-0.044 0.093-0.044 0.147 0 0.041 0.010 0.079 0.030 0.112 0.021 0.034 0.052 0.065 0.094 0.094s0.092 0.056 0.152 0.082c0.060 0.026 0.13 0.051 0.209 0.075 0.133 0.040 0.249 0.085 0.35 0.136 0.102 0.050 0.186 0.107 0.254 0.169s0.119 0.133 0.154 0.213c0.035 0.079 0.052 0.169 0.052 0.27 0 0.106-0.021 0.201-0.062 0.285s-0.101 0.155-0.179 0.213c-0.078 0.058-0.171 0.102-0.28 0.132s-0.229 0.045-0.363 0.045c-0.12 0-0.239-0.016-0.357-0.047-0.117-0.032-0.224-0.081-0.32-0.146-0.095-0.065-0.171-0.147-0.228-0.248s-0.085-0.219-0.085-0.357h0.504c0 0.076 0.012 0.14 0.035 0.192s0.056 0.095 0.099 0.127c0.044 0.032 0.095 0.056 0.154 0.070 0.060 0.015 0.126 0.022 0.198 0.022 0.087 0 0.158-0.012 0.214-0.037 0.057-0.025 0.099-0.059 0.126-0.102 0.028-0.044 0.042-0.093 0.042-0.147zM27.294 23.151v2.438h-0.501v-2.438h0.501zM28.044 23.151v0.393h-1.989v-0.393h1.989zM29.966 25.197v0.392h-1.297v-0.392h1.297zM28.832 23.151v2.438h-0.502v-2.438h0.502zM29.797 24.144v0.382h-1.128v-0.382h1.128zM29.964 23.151v0.393h-1.296v-0.393h1.296zM30.259 23.151h0.909c0.186 0 0.346 0.028 0.48 0.084 0.135 0.056 0.239 0.138 0.311 0.248s0.109 0.244 0.109 0.403c0 0.131-0.022 0.243-0.067 0.337-0.044 0.093-0.105 0.17-0.186 0.233-0.079 0.061-0.172 0.11-0.28 0.147l-0.159 0.084h-0.79l-0.003-0.392h0.588c0.088 0 0.161-0.016 0.219-0.047s0.102-0.075 0.131-0.131c0.030-0.056 0.045-0.12 0.045-0.194 0-0.078-0.015-0.146-0.044-0.203s-0.073-0.1-0.132-0.131-0.133-0.045-0.223-0.045h-0.407v2.044h-0.502v-2.438zM31.621 25.589l-0.556-1.086 0.531-0.003 0.562 1.066v0.023h-0.537zM34.258 24.72h-0.621v-0.392h0.621c0.096 0 0.174-0.016 0.234-0.047 0.060-0.032 0.104-0.077 0.132-0.134s0.042-0.121 0.042-0.192c0-0.073-0.014-0.14-0.042-0.203s-0.072-0.113-0.132-0.151-0.138-0.057-0.234-0.057h-0.447v2.044h-0.502v-2.438h0.949c0.191 0 0.354 0.035 0.49 0.104 0.137 0.068 0.242 0.162 0.315 0.283s0.109 0.258 0.109 0.413c0 0.157-0.036 0.294-0.109 0.408s-0.177 0.204-0.315 0.266c-0.136 0.062-0.3 0.094-0.49 0.094zM37.154 25.197v0.392h-1.297v-0.392h1.297zM36.021 23.151v2.438h-0.502v-2.438h0.502zM36.985 24.144v0.382h-1.128v-0.382h1.128zM37.153 23.151v0.393h-1.296v-0.393h1.296zM38.571 23.151v2.438h-0.501v-2.438h0.501zM39.321 23.151v0.393h-1.989v-0.393h1.989zM41.242 25.197v0.392h-1.297v-0.392h1.297zM40.109 23.151v2.438h-0.502v-2.438h0.502zM41.073 24.144v0.382h-1.128v-0.382h1.128zM41.241 23.151v0.393h-1.296v-0.393h1.296zM41.535 23.151h0.909c0.186 0 0.347 0.028 0.48 0.084 0.135 0.056 0.239 0.138 0.311 0.248s0.109 0.244 0.109 0.403c0 0.131-0.022 0.243-0.067 0.337-0.044 0.093-0.105 0.17-0.186 0.233-0.079 0.061-0.172 0.11-0.28 0.147l-0.159 0.084h-0.79l-0.003-0.392h0.588c0.088 0 0.161-0.016 0.219-0.047s0.102-0.075 0.131-0.131c0.030-0.056 0.045-0.12 0.045-0.194 0-0.078-0.014-0.146-0.044-0.203s-0.073-0.1-0.132-0.131c-0.059-0.030-0.133-0.045-0.223-0.045h-0.407v2.044h-0.502v-2.438zM42.898 25.589l-0.556-1.086 0.531-0.003 0.563 1.066v0.023h-0.537zM45.001 24.951c0-0.044-0.007-0.083-0.020-0.117-0.012-0.036-0.036-0.068-0.070-0.097-0.035-0.030-0.083-0.060-0.146-0.089s-0.143-0.059-0.243-0.090c-0.111-0.036-0.215-0.076-0.315-0.121-0.098-0.045-0.185-0.096-0.261-0.156-0.075-0.060-0.134-0.13-0.178-0.209-0.042-0.079-0.064-0.171-0.064-0.276 0-0.102 0.022-0.194 0.067-0.276 0.045-0.084 0.107-0.155 0.188-0.214 0.080-0.060 0.175-0.107 0.285-0.139 0.111-0.032 0.232-0.049 0.363-0.049 0.18 0 0.337 0.032 0.47 0.097s0.238 0.154 0.311 0.266c0.075 0.113 0.112 0.242 0.112 0.387h-0.499c0-0.071-0.015-0.134-0.045-0.188-0.029-0.055-0.074-0.098-0.134-0.129-0.059-0.031-0.134-0.047-0.224-0.047-0.087 0-0.16 0.013-0.218 0.040-0.058 0.026-0.102 0.061-0.131 0.105-0.029 0.044-0.044 0.093-0.044 0.147 0 0.041 0.010 0.079 0.030 0.112 0.021 0.034 0.052 0.065 0.094 0.094s0.092 0.056 0.152 0.082c0.060 0.026 0.13 0.051 0.209 0.075 0.133 0.040 0.249 0.085 0.35 0.136 0.102 0.050 0.186 0.107 0.254 0.169s0.119 0.133 0.154 0.213c0.035 0.079 0.052 0.169 0.052 0.27 0 0.106-0.021 0.201-0.062 0.285s-0.101 0.155-0.179 0.213c-0.078 0.058-0.171 0.102-0.28 0.132s-0.229 0.045-0.363 0.045c-0.12 0-0.239-0.016-0.357-0.047-0.117-0.032-0.224-0.081-0.32-0.146-0.095-0.065-0.171-0.147-0.228-0.248s-0.085-0.219-0.085-0.357h0.504c0 0.076 0.012 0.14 0.035 0.192s0.056 0.095 0.099 0.127c0.044 0.032 0.095 0.056 0.154 0.070 0.060 0.015 0.126 0.022 0.198 0.022 0.087 0 0.158-0.012 0.214-0.037 0.057-0.025 0.099-0.059 0.126-0.102 0.028-0.044 0.042-0.093 0.042-0.147z"></path>
</svg>
